<svg xmlns="http://www.w3.org/2000/svg" viewBox="0 0 512 512">
  <!-- Stylized Ivory Skull -->
  <path fill="#FDF5E6" d="M256,48C154.3,48,72,130.3,72,232c0,45.4,16.5,86.9,43.8,119.2l-1.8,24.8c-1.5,21.1,14.6,39.9,35.6,41.4 c2,0.1,4-0.1,6-0.4l30.4-5.1c11.5,13.6,24.8,25.4,39.6,35.1l-5.1,30.4c-3.6,21.2,10.6,41.1,31.7,44.7c2,0.3,4,0.5,6,0.4 c21.1-0.3,38.1-17.5,38.1-38.6V448c26.2,0,52.4-5.9,76.5-17.6l24.3,24.3c14.8,14.8,38.9,14.8,53.7,0s14.8-38.9,0-53.7l-13.8-13.8 c14.5-16.1,26.5-34.6,35.4-55.1l21.4,12.4c18.3,10.6,41.8,4.3,52.4-14s4.3-41.8-14-52.4l-15.1-8.7C429.2,260,440,246.5,440,232 C440,130.3,357.7,48,256,48z"/>
  
  <!-- Eye Sockets (Muted Dark Grey) -->
  <circle cx="184" cy="232" r="48" fill="#121212"/>
  <circle cx="328" cy="232" r="48" fill="#121212"/>
  
  <!-- Nasal Cavity -->
  <path fill="#121212" d="M256,304c-11,0-20,9-20,20c0,11,9,20,20,20s20-9,20-20C276,313,267,304,256,304z"/>
  
  <!-- Magnifying Glass over right eye (accent color) -->
  <circle cx="328" cy="232" r="56" fill="none" stroke="#9370DB" stroke-width="12" opacity="0.8"/>
  <line x1="375" y1="279" x2="420" y2="324" stroke="#9370DB" stroke-width="16" stroke-linecap="round" opacity="0.8"/>
  
  <!-- Subtle Gradients/Details -->
  <path fill="#E6E6FA" opacity="0.1" d="M256,64c-92.8,0-168,75.2-168,168s75.2,168,168,168s168-75.2,168-168S348.8,64,256,64z"/>
</svg>
